<?xml version="1.0" encoding="UTF-8"?>
<svg viewBox="0 0 24 24" xmlns="http://www.w3.org/2000/svg">
<path d="m-6.1035e-5 12c0-6.6274 5.3726-12 12-12 6.6275 0 12 5.3726 12 12 0 6.6274-5.3725 12-12 12-6.6274 0-12-5.3726-12-12z" fill="#FAAD3F"/>
<path d="m15.006 15.211c0.1-0.3359 0.0594-0.6438-0.1031-0.8708-0.15-0.2115-0.4-0.3328-0.7063-0.3484l-5.775-0.0715-0.0875-0.0497-0.01562-0.1027c0.02187-0.056 0.075-0.0964 0.1375-0.1026l5.8219-0.0747c0.6906-0.0342 1.4406-0.5878 1.7031-1.2689l0.3312-0.8615 0.0094-0.112c-0.375-1.6888-1.8875-2.9484-3.7-2.9484-1.6687 0-3.0844 1.073-3.5906 2.5596-0.32813-0.2425-0.74375-0.3732-1.1969-0.3296-0.80312 0.0777-1.4469 0.7184-1.525 1.5177-0.01875 0.2053-0.00625 0.4075 0.04063 0.591-1.3062 0.0373-2.35 1.1041-2.35 2.4134 0 0.1151 0.00937 0.2302 0.025 0.3515 0.00937 0.0529 0.05625 0.0964 0.1125 0.0964h10.653c0.0625 0 0.1156-0.0404 0.1375-0.0995l0.0781-0.2893zm1.8375-3.6886c-0.0531 0-0.1063 0-0.1594 0.0093l-0.0875 0.0653-0.225 0.7807c-0.1 0.3359-0.0625 0.6438 0.1031 0.8739 0.15 0.2115 0.4032 0.3297 0.7094 0.3453l1.2281 0.0746 0.0907 0.0467 0.0125 0.0995c-0.0188 0.056-0.075 0.1026-0.1344 0.1026l-1.2813 0.0747c-0.6968 0.0311-1.4406 0.5878-1.7031 1.2689l-0.0906 0.2395c-0.0219 0.0466 0.0125 0.0933 0.0656 0.0933h4.4c0.05 0 0.0969-0.0342 0.1125-0.084 0.075-0.2737 0.1156-0.5567 0.1156-0.8491 0-1.7261-1.4156-3.135-3.1562-3.135v-0.0062z" fill="#fff"/>
</svg>
