<svg xmlns="http://www.w3.org/2000/svg" width="13" height="13" viewBox="0 0 13 13">
    <path d="M6.5 0A6.5 6.5 0 1 0 13 6.5 6.492 6.492 0 0 0 6.5 0zm5.393 5.948h-1.866a9.2 9.2 0 0 0-1.16-4.321 5.429 5.429 0 0 1 3.026 4.321zM5.945 1.237v4.708H4.05c.117-2.42.98-4.185 1.895-4.708zm0 5.815v4.706c-.916-.528-1.778-2.3-1.9-4.706zm1.107 4.711V7.052h1.9c-.119 2.423-.982 4.188-1.9 4.711zm0-5.815V1.239c.916.528 1.778 2.3 1.9 4.706h-1.9zM4.13 1.624a9.206 9.206 0 0 0-1.16 4.321H1.107A5.439 5.439 0 0 1 4.13 1.624zM1.107 7.052h1.866a9.166 9.166 0 0 0 1.16 4.321 5.423 5.423 0 0 1-3.026-4.321zm7.763 4.324a9.206 9.206 0 0 0 1.16-4.321h1.87a5.448 5.448 0 0 1-3.03 4.321z"/>
</svg>
