<svg width="257" height="133" viewBox="0 0 257 133" fill="none" xmlns="http://www.w3.org/2000/svg">
<path d="M5.32009 130.116L5 129.849L4.67991 130.116L2.02984 132.324L0.5 130.802V130.5V126V2C0.5 1.17157 1.17157 0.5 2 0.5H255C255.828 0.5 256.5 1.17157 256.5 2V126V130.266L254 132.349L251.32 130.116L251 129.849L250.68 130.116L248 132.349L245.32 130.116L245 129.849L244.68 130.116L242 132.349L239.32 130.116L239 129.849L238.68 130.116L236 132.349L233.32 130.116L233 129.849L232.68 130.116L230 132.349L227.32 130.116L227 129.849L226.68 130.116L224 132.349L221.32 130.116L221 129.849L220.68 130.116L218 132.349L215.32 130.116L215 129.849L214.68 130.116L212 132.349L209.32 130.116L209 129.849L208.68 130.116L206 132.349L203.32 130.116L203 129.849L202.68 130.116L200 132.349L197.32 130.116L197 129.849L196.68 130.116L194 132.349L191.32 130.116L191 129.849L190.68 130.116L188 132.349L185.32 130.116L185 129.849L184.68 130.116L182 132.349L179.32 130.116L179 129.849L178.68 130.116L176 132.349L173.32 130.116L173 129.849L172.68 130.116L170 132.349L167.32 130.116L167 129.849L166.68 130.116L164 132.349L161.32 130.116L161 129.849L160.68 130.116L158 132.349L155.32 130.116L155 129.849L154.68 130.116L152 132.349L149.32 130.116L149 129.849L148.68 130.116L146 132.349L143.32 130.116L143 129.849L142.68 130.116L140 132.349L137.32 130.116L137 129.849L136.68 130.116L134 132.349L131.32 130.116L131 129.849L130.68 130.116L128 132.349L125.32 130.116L125 129.849L124.68 130.116L122 132.349L119.32 130.116L119 129.849L118.68 130.116L116 132.349L113.32 130.116L113 129.849L112.68 130.116L110 132.349L107.32 130.116L107 129.849L106.68 130.116L104 132.349L101.32 130.116L101 129.849L100.68 130.116L98 132.349L95.3201 130.116L95 129.849L94.6799 130.116L92 132.349L89.3201 130.116L89 129.849L88.6799 130.116L86 132.349L83.3201 130.116L83 129.849L82.6799 130.116L80 132.349L77.3201 130.116L77 129.849L76.6799 130.116L74 132.349L71.3201 130.116L71 129.849L70.6799 130.116L68 132.349L65.3201 130.116L65 129.849L64.6799 130.116L62 132.349L59.3201 130.116L59 129.849L58.6799 130.116L56 132.349L53.3201 130.116L53 129.849L52.6799 130.116L50 132.349L47.3201 130.116L47 129.849L46.6799 130.116L44 132.349L41.3201 130.116L41 129.849L40.6799 130.116L38 132.349L35.3201 130.116L35 129.849L34.6799 130.116L32 132.349L29.3201 130.116L29 129.849L28.6799 130.116L26 132.349L23.3201 130.116L23 129.849L22.6799 130.116L20 132.349L17.3201 130.116L17 129.849L16.6799 130.116L14 132.349L11.3201 130.116L11 129.849L10.6799 130.116L8 132.349L5.32009 130.116Z" stroke="#ECEFF1"/>
</svg>
