<svg width="257" height="165" viewBox="0 0 257 165" fill="none" xmlns="http://www.w3.org/2000/svg">
<path d="M5.32009 162.116L5 161.849L4.67991 162.116L2.02984 164.324L0.5 162.802V162.5V158V2C0.5 1.17157 1.17157 0.5 2 0.5H255C255.828 0.5 256.5 1.17157 256.5 2V158V162.266L254 164.349L251.32 162.116L251 161.849L250.68 162.116L248 164.349L245.32 162.116L245 161.849L244.68 162.116L242 164.349L239.32 162.116L239 161.849L238.68 162.116L236 164.349L233.32 162.116L233 161.849L232.68 162.116L230 164.349L227.32 162.116L227 161.849L226.68 162.116L224 164.349L221.32 162.116L221 161.849L220.68 162.116L218 164.349L215.32 162.116L215 161.849L214.68 162.116L212 164.349L209.32 162.116L209 161.849L208.68 162.116L206 164.349L203.32 162.116L203 161.849L202.68 162.116L200 164.349L197.32 162.116L197 161.849L196.68 162.116L194 164.349L191.32 162.116L191 161.849L190.68 162.116L188 164.349L185.32 162.116L185 161.849L184.68 162.116L182 164.349L179.32 162.116L179 161.849L178.68 162.116L176 164.349L173.32 162.116L173 161.849L172.68 162.116L170 164.349L167.32 162.116L167 161.849L166.68 162.116L164 164.349L161.32 162.116L161 161.849L160.68 162.116L158 164.349L155.32 162.116L155 161.849L154.68 162.116L152 164.349L149.32 162.116L149 161.849L148.68 162.116L146 164.349L143.32 162.116L143 161.849L142.68 162.116L140 164.349L137.32 162.116L137 161.849L136.68 162.116L134 164.349L131.32 162.116L131 161.849L130.68 162.116L128 164.349L125.32 162.116L125 161.849L124.68 162.116L122 164.349L119.32 162.116L119 161.849L118.68 162.116L116 164.349L113.32 162.116L113 161.849L112.68 162.116L110 164.349L107.32 162.116L107 161.849L106.68 162.116L104 164.349L101.32 162.116L101 161.849L100.68 162.116L98 164.349L95.3201 162.116L95 161.849L94.6799 162.116L92 164.349L89.3201 162.116L89 161.849L88.6799 162.116L86 164.349L83.3201 162.116L83 161.849L82.6799 162.116L80 164.349L77.3201 162.116L77 161.849L76.6799 162.116L74 164.349L71.3201 162.116L71 161.849L70.6799 162.116L68 164.349L65.3201 162.116L65 161.849L64.6799 162.116L62 164.349L59.3201 162.116L59 161.849L58.6799 162.116L56 164.349L53.3201 162.116L53 161.849L52.6799 162.116L50 164.349L47.3201 162.116L47 161.849L46.6799 162.116L44 164.349L41.3201 162.116L41 161.849L40.6799 162.116L38 164.349L35.3201 162.116L35 161.849L34.6799 162.116L32 164.349L29.3201 162.116L29 161.849L28.6799 162.116L26 164.349L23.3201 162.116L23 161.849L22.6799 162.116L20 164.349L17.3201 162.116L17 161.849L16.6799 162.116L14 164.349L11.3201 162.116L11 161.849L10.6799 162.116L8 164.349L5.32009 162.116Z" stroke="#ECEFF1"/>
</svg>
