<svg width="257" height="163" viewBox="0 0 257 163" fill="none" xmlns="http://www.w3.org/2000/svg">
<path d="M5.32009 160.116L5 159.849L4.67991 160.116L2.02984 162.324L0.5 160.802V160.5V156V2C0.5 1.17157 1.17157 0.5 2 0.5H255C255.828 0.5 256.5 1.17157 256.5 2V156V160.266L254 162.349L251.32 160.116L251 159.849L250.68 160.116L248 162.349L245.32 160.116L245 159.849L244.68 160.116L242 162.349L239.32 160.116L239 159.849L238.68 160.116L236 162.349L233.32 160.116L233 159.849L232.68 160.116L230 162.349L227.32 160.116L227 159.849L226.68 160.116L224 162.349L221.32 160.116L221 159.849L220.68 160.116L218 162.349L215.32 160.116L215 159.849L214.68 160.116L212 162.349L209.32 160.116L209 159.849L208.68 160.116L206 162.349L203.32 160.116L203 159.849L202.68 160.116L200 162.349L197.32 160.116L197 159.849L196.68 160.116L194 162.349L191.32 160.116L191 159.849L190.68 160.116L188 162.349L185.32 160.116L185 159.849L184.68 160.116L182 162.349L179.32 160.116L179 159.849L178.68 160.116L176 162.349L173.32 160.116L173 159.849L172.68 160.116L170 162.349L167.32 160.116L167 159.849L166.68 160.116L164 162.349L161.32 160.116L161 159.849L160.68 160.116L158 162.349L155.32 160.116L155 159.849L154.68 160.116L152 162.349L149.32 160.116L149 159.849L148.68 160.116L146 162.349L143.32 160.116L143 159.849L142.68 160.116L140 162.349L137.32 160.116L137 159.849L136.68 160.116L134 162.349L131.32 160.116L131 159.849L130.68 160.116L128 162.349L125.32 160.116L125 159.849L124.68 160.116L122 162.349L119.32 160.116L119 159.849L118.68 160.116L116 162.349L113.32 160.116L113 159.849L112.68 160.116L110 162.349L107.32 160.116L107 159.849L106.68 160.116L104 162.349L101.32 160.116L101 159.849L100.68 160.116L98 162.349L95.3201 160.116L95 159.849L94.6799 160.116L92 162.349L89.3201 160.116L89 159.849L88.6799 160.116L86 162.349L83.3201 160.116L83 159.849L82.6799 160.116L80 162.349L77.3201 160.116L77 159.849L76.6799 160.116L74 162.349L71.3201 160.116L71 159.849L70.6799 160.116L68 162.349L65.3201 160.116L65 159.849L64.6799 160.116L62 162.349L59.3201 160.116L59 159.849L58.6799 160.116L56 162.349L53.3201 160.116L53 159.849L52.6799 160.116L50 162.349L47.3201 160.116L47 159.849L46.6799 160.116L44 162.349L41.3201 160.116L41 159.849L40.6799 160.116L38 162.349L35.3201 160.116L35 159.849L34.6799 160.116L32 162.349L29.3201 160.116L29 159.849L28.6799 160.116L26 162.349L23.3201 160.116L23 159.849L22.6799 160.116L20 162.349L17.3201 160.116L17 159.849L16.6799 160.116L14 162.349L11.3201 160.116L11 159.849L10.6799 160.116L8 162.349L5.32009 160.116Z" stroke="#ECEFF1"/>
</svg>
