<svg width="257" height="106" viewBox="0 0 257 106" fill="none" xmlns="http://www.w3.org/2000/svg">
<path d="M5.32009 103.116L5 102.849L4.67991 103.116L2.02984 105.324L0.5 103.802V103.5V99V2C0.5 1.17157 1.17157 0.5 2 0.5H255C255.828 0.5 256.5 1.17157 256.5 2V99V103.266L254 105.349L251.32 103.116L251 102.849L250.68 103.116L248 105.349L245.32 103.116L245 102.849L244.68 103.116L242 105.349L239.32 103.116L239 102.849L238.68 103.116L236 105.349L233.32 103.116L233 102.849L232.68 103.116L230 105.349L227.32 103.116L227 102.849L226.68 103.116L224 105.349L221.32 103.116L221 102.849L220.68 103.116L218 105.349L215.32 103.116L215 102.849L214.68 103.116L212 105.349L209.32 103.116L209 102.849L208.68 103.116L206 105.349L203.32 103.116L203 102.849L202.68 103.116L200 105.349L197.32 103.116L197 102.849L196.68 103.116L194 105.349L191.32 103.116L191 102.849L190.68 103.116L188 105.349L185.32 103.116L185 102.849L184.68 103.116L182 105.349L179.32 103.116L179 102.849L178.68 103.116L176 105.349L173.32 103.116L173 102.849L172.68 103.116L170 105.349L167.32 103.116L167 102.849L166.68 103.116L164 105.349L161.32 103.116L161 102.849L160.68 103.116L158 105.349L155.32 103.116L155 102.849L154.68 103.116L152 105.349L149.32 103.116L149 102.849L148.68 103.116L146 105.349L143.32 103.116L143 102.849L142.68 103.116L140 105.349L137.32 103.116L137 102.849L136.68 103.116L134 105.349L131.32 103.116L131 102.849L130.68 103.116L128 105.349L125.32 103.116L125 102.849L124.68 103.116L122 105.349L119.32 103.116L119 102.849L118.68 103.116L116 105.349L113.32 103.116L113 102.849L112.68 103.116L110 105.349L107.32 103.116L107 102.849L106.68 103.116L104 105.349L101.32 103.116L101 102.849L100.68 103.116L98 105.349L95.3201 103.116L95 102.849L94.6799 103.116L92 105.349L89.3201 103.116L89 102.849L88.6799 103.116L86 105.349L83.3201 103.116L83 102.849L82.6799 103.116L80 105.349L77.3201 103.116L77 102.849L76.6799 103.116L74 105.349L71.3201 103.116L71 102.849L70.6799 103.116L68 105.349L65.3201 103.116L65 102.849L64.6799 103.116L62 105.349L59.3201 103.116L59 102.849L58.6799 103.116L56 105.349L53.3201 103.116L53 102.849L52.6799 103.116L50 105.349L47.3201 103.116L47 102.849L46.6799 103.116L44 105.349L41.3201 103.116L41 102.849L40.6799 103.116L38 105.349L35.3201 103.116L35 102.849L34.6799 103.116L32 105.349L29.3201 103.116L29 102.849L28.6799 103.116L26 105.349L23.3201 103.116L23 102.849L22.6799 103.116L20 105.349L17.3201 103.116L17 102.849L16.6799 103.116L14 105.349L11.3201 103.116L11 102.849L10.6799 103.116L8 105.349L5.32009 103.116Z" stroke="#ECEFF1"/>
</svg>
