<svg xmlns="http://www.w3.org/2000/svg" width="8.009" height="12" viewBox="0 0 8.009 12">
    <defs>
        <style>
            .cls-1{fill:#888}
        </style>
    </defs>
    <path id="Lock" d="M23.5 4.488h-.4V3.354a3.354 3.354 0 0 0-6.709 0v1.134H16a.254.254 0 0 0-.254.254v7A.254.254 0 0 0 16 12h7.5a.254.254 0 0 0 .254-.254v-7a.254.254 0 0 0-.254-.258zm-3.753-3.071a1.939 1.939 0 0 1 1.937 1.937v1.134H17.81V3.354a1.939 1.939 0 0 1 1.937-1.937z" class="cls-1" transform="translate(-15.743)"/>
</svg>
