<svg width="18px" height="20px" fill-rule="evenodd" clip-rule="evenodd" xmlns="http://www.w3.org/2000/svg" xmlns:bx="https://boxy-svg.com">
  <path d="M 8.455 6 L 12.544 6 L 12.544 4.833 C 12.544 4.788 12.528 4.748 12.495 4.716 C 12.464 4.685 12.42 4.667 12.375 4.667 L 8.625 4.667 C 8.58 4.667 8.535 4.685 8.504 4.716 C 8.471 4.748 8.455 4.788 8.455 4.833 L 8.455 6 Z M 15.955 6.667 L 5.045 6.667 L 5.045 18.667 C 5.045 19.035 5.351 19.332 5.727 19.332 L 15.273 19.332 C 15.649 19.332 15.955 19.035 15.955 18.667 L 15.955 6.667 Z M 9.136 8.999 C 9.136 8.816 8.984 8.668 8.795 8.668 C 8.607 8.668 8.455 8.816 8.455 8.999 L 8.455 16.999 C 8.455 17.184 8.607 17.332 8.795 17.332 C 8.984 17.332 9.136 17.184 9.136 16.999 L 9.136 8.999 Z M 12.544 8.999 C 12.544 8.816 12.393 8.668 12.204 8.668 C 12.016 8.668 11.864 8.816 11.864 8.999 L 11.864 16.999 C 11.864 17.184 12.016 17.332 12.204 17.332 C 12.393 17.332 12.544 17.184 12.544 16.999 L 12.544 8.999 Z M 18 6 L 18 6.667 L 16.635 6.667 L 16.635 18.667 C 16.635 19.404 16.026 20 15.273 20 L 5.727 20 C 4.974 20 4.364 19.404 4.364 18.667 L 4.364 6.667 L 3 6.667 L 3 6 L 7.774 6 L 7.774 4.667 C 7.774 4.299 8.079 4 8.455 4 L 12.544 4 C 12.92 4 13.226 4.299 13.226 4.667 L 13.226 6 L 18 6 Z" style="fill: rgb(102, 102, 102);" bx:origin="0.533333 0.5"/>
</svg>
