<svg width="52" height="52" viewBox="0 0 52 52" fill="none" xmlns="http://www.w3.org/2000/svg">
<path d="M16 32C24.8366 32 32 24.8366 32 16C32 7.16344 24.8366 0 16 0C7.16344 0 0 7.16344 0 16C0 24.8366 7.16344 32 16 32Z" fill="#667FE3"/>
<path d="M15.9947 7.2002V19.3563L10.1281 16.1635L15.9947 7.2002Z" fill="white"/>
<path d="M15.9947 7.2002L21.8613 16.1635L15.9947 19.3563V7.2002Z" fill="white"/>
<path d="M15.9946 20.3794V24.8002L10.1281 17.1882L15.9946 20.3794Z" fill="white"/>
<path d="M15.9946 24.8002V20.3794L21.8615 17.1882L15.9946 24.8002Z" fill="white"/>
<g clip-path="url(#clip0)">
<path fill-rule="evenodd" clip-rule="evenodd" d="M29.6884 48.6772C30.8675 49.3849 32.0136 50.0728 32.8984 50.604C35.9979 52.4656 35.9979 52.4657 39.0996 50.6021L48.0861 45.2073C49.7121 44.207 49.7108 42.4198 49.7108 42.4198V29.5801C49.7108 29.5801 49.7121 27.7742 48.0861 26.7908L39.1028 21.3977C37.5493 20.4656 36.773 19.9998 35.9969 20C35.2218 20.0002 34.4469 20.465 32.898 21.3941L23.9019 26.7949C22.2836 27.7266 22.284 29.5833 22.284 29.5833L22.2836 42.4189C22.2836 42.4189 22.2836 44.1251 23.8877 45.1945C24.4317 45.5222 27.137 47.1459 29.6884 48.6772ZM37.9773 36.2688L43.2911 29.7428H39.3318L35.9979 33.8379L32.6639 29.7428H28.7051L34.0184 36.2688L28.7083 42.7897H32.6676L35.9979 38.6996L39.3281 42.7897H43.2875L37.9773 36.2688Z" fill="url(#paint0_linear)"/>
</g>
<path d="M6.33346 35.51C5.3197 34.4905 4.61547 33.2841 4.20532 32C3.57075 35.0041 4.40653 38.2417 6.7204 40.5687C8.67055 42.53 11.263 43.425 13.8168 43.2849L13.809 46.8571L20 40.631L13.809 34.4048V37.9849C11.1624 38.374 8.37648 37.5646 6.33346 35.51Z" fill="#E8EAF6"/>
<path d="M45.6665 16.49C46.6803 17.5095 47.3845 18.7159 47.7947 20C48.4292 16.9959 47.5935 13.7583 45.2796 11.4313C43.3295 9.47003 40.737 8.57502 38.1832 8.71511L38.191 5.14285L32 11.369L38.191 17.5951L38.191 14.0151C40.8376 13.626 43.6235 14.4354 45.6665 16.49Z" fill="#E8EAF6"/>
<defs>
<linearGradient id="paint0_linear" x1="22.2836" y1="52" x2="22.2836" y2="20" gradientUnits="userSpaceOnUse">
<stop stop-color="#FDAC42"/>
<stop offset="1" stop-color="#FDD341"/>
</linearGradient>
<clipPath id="clip0">
<rect width="32" height="32" fill="white" transform="translate(20 20)"/>
</clipPath>
</defs>
</svg>
