<?xml version="1.0" encoding="UTF-8"?>
<svg width="940px" height="289px" viewBox="0 0 940 289" version="1.1" xmlns="http://www.w3.org/2000/svg" xmlns:xlink="http://www.w3.org/1999/xlink">
    <!-- Generator: Sketch 55.2 (78181) - https://sketchapp.com -->
    <title>Combined Shape</title>
    <desc>Created with Sketch.</desc>
    <g id="Page-1" stroke="none" stroke-width="1" fill="none" fill-rule="evenodd">
        <path d="M42,0 L248,0 C271.195959,-4.26102863e-15 290,18.8040405 290,42 L290,247 C290,270.195959 271.195959,289 248,289 L42,289 C18.8040405,289 2.84068575e-15,270.195959 0,247 L0,42 C-2.84068575e-15,18.8040405 18.8040405,4.26102863e-15 42,0 Z M146.4375,47.823 C137.893457,47.823 129.905787,49.0022382 122.47425,51.36075 C115.042713,53.7192618 108.456779,57.2347266 102.71625,61.90725 C96.9757213,66.5797734 92.1920191,72.4092151 88.365,79.39575 C84.5379809,86.3822849 81.9570067,94.5034537 80.622,103.7595 L97.977,106.83 C99.579008,107.097001 101.091993,107.2305 102.516,107.2305 C105.542015,107.2305 107.989491,106.496257 109.8585,105.02775 C111.727509,103.559243 113.195995,101.134017 114.264,97.752 C116.31101,91.2549675 119.915474,85.9372707 125.0775,81.79875 C130.239526,77.6602293 136.736461,75.591 144.5685,75.591 C153.201543,75.591 160.009975,77.9272266 164.994,82.59975 C169.978025,87.2722734 172.47,94.1919542 172.47,103.359 C172.47,107.631021 171.847006,111.546982 170.601,115.107 C169.354994,118.667018 167.152266,121.715237 163.99275,124.25175 C160.833234,126.788263 156.583527,128.768493 151.2435,130.1925 C145.903473,131.616507 139.18404,132.373 131.085,132.462 L131.085,155.958 C140.875049,155.958 148.684721,156.714492 154.51425,158.2275 C160.343779,159.740508 164.815984,161.831987 167.931,164.502 C171.046016,167.172013 173.092995,170.398231 174.072,174.18075 C175.051005,177.963269 175.5405,182.168477 175.5405,186.7965 C175.5405,190.445518 174.850757,194.072232 173.47125,197.67675 C172.091743,201.281268 170.000264,204.551985 167.19675,207.489 C164.393236,210.426015 160.900021,212.806741 156.717,214.63125 C152.533979,216.455759 147.639028,217.368 142.032,217.368 C137.047975,217.368 132.753768,216.633757 129.14925,215.16525 C125.544732,213.696743 122.407513,211.783262 119.7375,209.42475 C117.067487,207.066238 114.77576,204.374015 112.86225,201.348 C110.94874,198.321985 109.191008,195.251516 107.589,192.1365 C106.609995,190.267491 105.208259,188.843505 103.38375,187.8645 C101.559241,186.885495 99.4900116,186.396 97.176,186.396 C94.5949871,186.396 92.0585125,186.929995 89.5665,187.998 L75.015,194.0055 C77.6850133,202.282541 80.8889813,209.580468 84.627,215.8995 C88.3650187,222.218532 92.9039733,227.558478 98.244,231.9195 C103.584027,236.280522 109.858464,239.573489 117.0675,241.7985 C124.276536,244.023511 132.731451,245.136 142.4325,245.136 C151.332544,245.136 159.76521,243.845513 167.73075,241.2645 C175.69629,238.683487 182.70497,234.878775 188.757,229.85025 C194.80903,224.821725 199.614982,218.614037 203.175,211.227 C206.735018,203.839963 208.515,195.340548 208.515,185.7285 C208.515,174.425443 205.667028,165.036037 199.971,157.56 C194.274972,150.083963 185.642058,144.521518 174.072,140.8725 C178.878024,139.270492 183.172231,137.268012 186.95475,134.865 C190.737269,132.461988 193.941237,129.525017 196.56675,126.054 C199.192263,122.582983 201.194743,118.511273 202.57425,113.83875 C203.953757,109.166227 204.6435,103.759531 204.6435,97.6185 C204.6435,90.5874648 203.286264,84.0460303 200.57175,77.994 C197.857236,71.9419697 193.963525,66.6687725 188.8905,62.17425 C183.817475,57.6797275 177.698786,54.1642627 170.53425,51.62775 C163.369714,49.0912373 155.337544,47.823 146.4375,47.823 Z M385.491,245 L385.491,51.959 L452.1075,51.959 C464.745563,51.959 475.536705,53.160488 484.48125,55.5635 C493.425795,57.966512 500.768221,61.3929777 506.50875,65.843 C512.249279,70.2930222 516.454487,75.6774684 519.1245,81.9965 C521.794513,88.3155316 523.1295,95.4354604 523.1295,103.3565 C523.1295,107.895523 522.462007,112.234229 521.127,116.37275 C519.791993,120.511271 517.722764,124.382732 514.91925,127.98725 C512.115736,131.591768 508.555772,134.862485 504.23925,137.7995 C499.922728,140.736515 494.78303,143.22849 488.82,145.2755 C515.342133,151.23853 528.603,165.567387 528.603,188.2625 C528.603,196.450541 527.045516,204.015465 523.9305,210.9575 C520.815484,217.899535 516.27653,223.884725 510.3135,228.91325 C504.35047,233.941775 497.008044,237.879986 488.286,240.728 C479.563956,243.576014 469.596056,245 458.382,245 L385.491,245 Z M421.4025,160.361 L421.4025,216.965 L457.848,216.965 C464.523033,216.965 470.107728,216.164008 474.60225,214.562 C479.096772,212.959992 482.701236,210.824013 485.41575,208.154 C488.130264,205.483987 490.088244,202.369018 491.28975,198.809 C492.491256,195.248982 493.092,191.46652 493.092,187.4615 C493.092,183.278479 492.424507,179.518267 491.0895,176.18075 C489.754493,172.843233 487.663014,169.995262 484.815,167.63675 C481.966986,165.278238 478.318022,163.476006 473.868,162.23 C469.417978,160.983994 464.033532,160.361 457.7145,160.361 L421.4025,160.361 Z M421.4025,135.53 L450.105,135.53 C462.298061,135.53 471.553968,133.305022 477.873,128.855 C484.192032,124.404978 487.3515,117.329549 487.3515,107.6285 C487.3515,97.5714497 484.503528,90.4070214 478.8075,86.135 C473.111472,81.8629786 464.211561,79.727 452.1075,79.727 L421.4025,79.727 L421.4025,135.53 Z M749.946,148.4795 C749.946,162.630571 747.587524,175.73569 742.8705,187.79525 C738.153476,199.85481 731.523043,210.289956 722.979,219.101 C714.434957,227.912044 704.15556,234.787225 692.1405,239.72675 C680.12544,244.666275 666.820073,247.136 652.224,247.136 C637.627927,247.136 624.30031,244.666275 612.24075,239.72675 C600.18119,234.787225 589.857293,227.912044 581.26875,219.101 C572.680207,210.289956 566.027524,199.85481 561.3105,187.79525 C556.593476,175.73569 554.235,162.630571 554.235,148.4795 C554.235,134.328429 556.593476,121.22331 561.3105,109.16375 C566.027524,97.1041897 572.680207,86.6690441 581.26875,77.858 C589.857293,69.0469559 600.18119,62.1717747 612.24075,57.23225 C624.30031,52.2927253 637.627927,49.823 652.224,49.823 C666.820073,49.823 680.12544,52.3149751 692.1405,57.299 C704.15556,62.2830249 714.434957,69.1582062 722.979,77.92475 C731.523043,86.6912938 738.153476,97.1041897 742.8705,109.16375 C747.587524,121.22331 749.946,134.328429 749.946,148.4795 Z M713.1,148.4795 C713.1,137.888447 711.698264,128.387792 708.89475,119.97725 C706.091236,111.566708 702.064026,104.424529 696.813,98.5505 C691.561974,92.6764706 685.176288,88.1820156 677.65575,85.067 C670.135212,81.9519844 661.658047,80.3945 652.224,80.3945 C642.789953,80.3945 634.290538,81.9519844 626.7255,85.067 C619.160462,88.1820156 612.730276,92.6764706 607.43475,98.5505 C602.139224,104.424529 598.067514,111.566708 595.2195,119.97725 C592.371486,128.387792 590.9475,137.888447 590.9475,148.4795 C590.9475,159.070553 592.371486,168.571208 595.2195,176.98175 C598.067514,185.392292 602.139224,192.512221 607.43475,198.34175 C612.730276,204.171279 619.160462,208.643484 626.7255,211.7585 C634.290538,214.873516 642.789953,216.431 652.224,216.431 C661.658047,216.431 670.135212,214.873516 677.65575,211.7585 C685.176288,208.643484 691.561974,204.171279 696.813,198.34175 C702.064026,192.512221 706.091236,185.392292 708.89475,176.98175 C711.698264,168.571208 713.1,159.070553 713.1,148.4795 Z M825.9075,145.676 L764.364,51.959 L800.142,51.959 C802.634012,51.959 804.436244,52.2927467 805.54875,52.96025 C806.661256,53.6277533 807.662496,54.7179924 808.5525,56.231 L852.474,127.1195 C852.919002,125.962494 853.408497,124.827756 853.9425,123.71525 C854.476503,122.602744 855.099496,121.468006 855.8115,120.311 L895.995,56.8985 C897.95301,53.6054835 900.489484,51.959 903.6045,51.959 L938.0475,51.959 L875.8365,144.2075 L939.783,245 L903.8715,245 C901.468488,245 899.532757,244.377006 898.06425,243.131 C896.595743,241.884994 895.372005,240.461008 894.393,238.859 L849.6705,164.9 C849.314498,165.968005 848.914002,166.969245 848.469,167.90375 C848.023998,168.838255 847.579002,169.705996 847.134,170.507 L804.2805,238.859 C803.301495,240.372008 802.100007,241.773744 800.676,243.06425 C799.251993,244.354756 797.472011,245 795.336,245 L761.694,245 L825.9075,145.676 Z" id="Combined-Shape" fill="#000000" fill-rule="nonzero"></path>
    </g>
</svg>