<?xml version="1.0" encoding="UTF-8"?>
<svg width="898px" height="971px" viewBox="0 0 898 971" version="1.1" xmlns="http://www.w3.org/2000/svg" xmlns:xlink="http://www.w3.org/1999/xlink">
    <!-- Generator: Sketch 57.1 (83088) - https://sketch.com -->
    <title>Group</title>
    <desc>Created with Sketch.</desc>
    <g id="Page-1" stroke="none" stroke-width="1" fill="none" fill-rule="evenodd">
        <g id="noun_Delete_1898115" fill="#000000" fill-rule="nonzero">
            <g id="Group">
                <path d="M734.3,183.5 C734.3,205.7 734.3,227.9 734.3,250.1 C734.3,302.9 734.3,355.7 734.3,408.5 C734.3,472 734.3,535.4 734.3,598.9 C734.3,653.1 734.3,707.4 734.3,761.6 C734.3,786.7 734.4,811.8 734.3,836.9 C734.3,841.2 734,845.5 733.5,849.8 C734,846.3 734.5,842.7 734.9,839.2 C733.8,847.2 731.7,855 728.6,862.5 C729.9,859.3 731.3,856.1 732.6,852.9 C729.5,860.2 725.6,867 720.8,873.3 C722.9,870.6 725,867.9 727.1,865.2 C722,871.8 716.2,877.6 709.6,882.7 C712.3,880.6 715,878.5 717.7,876.4 C711.4,881.2 704.6,885.1 697.3,888.2 C700.5,886.9 703.7,885.5 706.9,884.2 C699.4,887.3 691.6,889.4 683.6,890.5 C687.1,890 690.7,889.5 694.2,889.1 C676,891.4 657,889.9 638.7,889.9 C601.2,889.9 563.7,889.9 526.2,889.9 C480.3,889.9 434.5,889.9 388.6,889.9 C349.1,889.9 309.7,889.9 270.2,889.9 C252.3,889.9 234.4,890 216.5,889.9 C212.3,889.9 208.1,889.6 203.9,889.1 C207.4,889.6 211,890.1 214.5,890.5 C206.5,889.4 198.7,887.3 191.2,884.2 C194.4,885.5 197.6,886.9 200.8,888.2 C193.5,885.1 186.7,881.2 180.4,876.4 C183.1,878.5 185.8,880.6 188.5,882.7 C181.9,877.6 176.1,871.8 171,865.2 C173.1,867.9 175.2,870.6 177.3,873.3 C172.5,867 168.6,860.2 165.5,852.9 C166.8,856.1 168.2,859.3 169.5,862.5 C166.4,855 164.3,847.2 163.2,839.2 C163.7,842.7 164.2,846.3 164.6,849.8 C163.5,840.8 163.8,831.6 163.8,822.5 C163.8,807.1 163.8,791.7 163.8,776.4 C163.8,724.6 163.8,672.8 163.8,621 C163.8,557.6 163.8,494.2 163.8,430.8 C163.8,375.7 163.8,320.6 163.8,265.5 C163.8,238.6 164.1,211.7 163.8,184.8 C163.8,184.4 163.8,184 163.8,183.6 C163.8,162.7 145.4,142.6 123.8,143.6 C102.1,144.6 83.8,161.2 83.8,183.6 C83.8,195.8 83.8,208 83.8,220.2 C83.8,251.8 83.8,283.4 83.8,315 C83.8,358 83.8,400.9 83.8,443.9 C83.8,490.6 83.8,537.2 83.8,583.9 C83.8,626.5 83.8,669.1 83.8,711.7 C83.8,742.5 83.8,773.3 83.8,804.2 C83.8,818.4 82.8,833 84.3,847.2 C86.6,868.9 92.3,890 104.4,908.5 C116.1,926.3 131.3,941.5 149.8,952.2 C171,964.5 195,970.1 219.4,970.1 C242.5,970.1 265.6,970.1 288.7,970.1 C330.8,970.1 373,970.1 415.1,970.1 C460.9,970.1 506.8,970.1 552.6,970.1 C586.8,970.1 621,970.1 655.2,970.1 C663.2,970.1 671.1,970.1 679.1,970.1 C704,970.1 729.1,964.1 750.4,950.9 C788.3,927.5 811.4,887.4 814,843.1 C814.3,838.4 814.2,833.7 814.2,829 C814.2,806.7 814.2,784.4 814.2,762.1 C814.2,724.3 814.2,686.4 814.2,648.6 C814.2,602.9 814.2,557.3 814.2,511.6 C814.2,465.9 814.2,420.2 814.2,374.4 C814.2,336.3 814.2,298.2 814.2,260 C814.2,237.5 814.2,215.1 814.2,192.6 C814.2,189.6 814.2,186.6 814.2,183.6 C814.2,162.7 795.8,142.6 774.2,143.6 C752.6,144.4 734.3,161 734.3,183.5 L734.3,183.5 Z" id="Path"></path>
                <path d="M857.3,138.5 C850,138.5 842.8,138.5 835.5,138.5 C815.7,138.5 796,138.5 776.2,138.5 C746.8,138.5 717.4,138.5 688,138.5 C652.3,138.5 616.6,138.5 580.9,138.5 C541.8,138.5 502.7,138.5 463.6,138.5 C424.1,138.5 384.6,138.5 345.2,138.5 C308.4,138.5 271.6,138.5 234.7,138.5 C203.6,138.5 172.5,138.5 141.3,138.5 C118.9,138.5 96.5,138.5 74.1,138.5 C63.5,138.5 52.8,138.4 42.1,138.5 C41.6,138.5 41.2,138.5 40.7,138.5 C19.8,138.5 -0.3,156.9 0.7,178.5 C1.7,200.2 18.3,218.5 40.7,218.5 C48,218.5 55.2,218.5 62.5,218.5 C82.3,218.5 102,218.5 121.8,218.5 C151.2,218.5 180.6,218.5 210,218.5 C245.7,218.5 281.4,218.5 317.1,218.5 C356.2,218.5 395.3,218.5 434.4,218.5 C473.9,218.5 513.4,218.5 552.8,218.5 C589.6,218.5 626.4,218.5 663.3,218.5 C694.4,218.5 725.5,218.5 756.7,218.5 C779.1,218.5 801.5,218.5 823.9,218.5 C834.5,218.5 845.2,218.6 855.9,218.5 C856.4,218.5 856.8,218.5 857.3,218.5 C878.2,218.5 898.3,200.1 897.3,178.5 C896.3,156.8 879.7,138.5 857.3,138.5 L857.3,138.5 Z" id="Path"></path>
                <path d="M705.2,178.5 C705.2,157.7 705.2,136.9 705.2,116.1 C705.2,103.6 705.1,92 702.8,79.5 C702,75.1 700.7,70.9 699,66.7 C696.1,59.6 693.3,52.5 689,46.3 C680.2,33.6 670.5,23.7 657.5,15.3 C637.5,2.4 614.9,0.0993055556 591.9,0.0993055556 C573.9,0.0993055556 555.9,0.0993055556 537.9,0.0993055556 C484.7,0.0993055556 431.6,0.0993055556 378.4,0.0993055556 C357.5,0.0993055556 336.7,0.0993055556 315.8,0.0993055556 C301.6,0.0993055556 288.3,1.0658141e-14 274.1,2.2 C247,6.5 223.7,24.5 208.6,46.8 C197.4,63.4 192.7,83.9 192.7,103.7 C192.7,126.5 192.7,149.3 192.7,172.1 C192.7,174.2 192.7,176.3 192.7,178.4 C192.7,199.3 211.1,219.4 232.7,218.4 C254.4,217.4 272.7,200.8 272.7,178.4 C272.7,164.5 272.7,150.6 272.7,136.7 C272.7,122.2 271.5,107.1 273.3,92.7 C272.8,96.2 272.3,99.8 271.9,103.3 C272.7,98 274.1,92.8 276.1,87.8 C274.8,91 273.4,94.2 272.1,97.4 C274.2,92.6 276.8,88.1 280,83.9 C277.9,86.6 275.8,89.3 273.7,92 C276.9,87.9 280.6,84.2 284.7,81 C282,83.1 279.3,85.2 276.6,87.3 C280.8,84.1 285.3,81.5 290.1,79.4 C286.9,80.7 283.7,82.1 280.5,83.4 C285.5,81.4 290.6,80 296,79.2 C292.5,79.7 288.9,80.2 285.4,80.6 C297.6,79.1 310.4,80 322.7,80 C347.7,80 372.8,80 397.8,80 C454.6,80 511.4,80 568.1,80 C582.7,80 598,78.8 612.5,80.6 C609,80.1 605.4,79.6 601.9,79.2 C607.2,80 612.4,81.4 617.4,83.4 C614.2,82.1 611,80.7 607.8,79.4 C612.6,81.5 617.1,84.1 621.3,87.3 C618.6,85.2 615.9,83.1 613.2,81 C617.3,84.2 621,87.9 624.2,92 C622.1,89.3 620,86.6 617.9,83.9 C621.1,88.1 623.7,92.6 625.8,97.4 C624.5,94.2 623.1,91 621.8,87.8 C623.8,92.8 625.2,97.9 626,103.3 C625.5,99.8 625,96.2 624.6,92.7 C626.4,107.1 625.2,122.2 625.2,136.7 C625.2,150.6 625.2,164.5 625.2,178.4 C625.2,199.3 643.6,219.4 665.2,218.4 C686.9,217.5 705.2,200.9 705.2,178.5 L705.2,178.5 Z" id="Path"></path>
                <path d="M239.7,339.5 C239.7,353.9 239.7,368.4 239.7,382.8 C239.7,417.3 239.7,451.8 239.7,486.3 C239.7,528.2 239.7,570.1 239.7,612 C239.7,648.1 239.7,684.2 239.7,720.3 C239.7,737.9 239.4,755.5 239.7,773 C239.7,773.3 239.7,773.5 239.7,773.8 C239.7,794.7 258.1,814.8 279.7,813.8 C301.4,812.8 319.7,796.2 319.7,773.8 C319.7,759.4 319.7,744.9 319.7,730.5 C319.7,696 319.7,661.5 319.7,627 C319.7,585.1 319.7,543.2 319.7,501.3 C319.7,465.2 319.7,429.1 319.7,393 C319.7,375.4 320,357.8 319.7,340.3 C319.7,340 319.7,339.8 319.7,339.5 C319.7,318.6 301.3,298.5 279.7,299.5 C258,300.4 239.7,317 239.7,339.5 L239.7,339.5 Z" id="Path"></path>
                <path d="M489,773.8 C489,759.4 489,744.9 489,730.5 C489,696 489,661.5 489,627 C489,585.1 489,543.2 489,501.3 C489,465.2 489,429.1 489,393 C489,375.4 489.3,357.8 489,340.3 C489,340 489,339.8 489,339.5 C489,318.6 470.6,298.5 449,299.5 C427.3,300.5 409,317.1 409,339.5 C409,353.9 409,368.4 409,382.8 C409,417.3 409,451.8 409,486.3 C409,528.2 409,570.1 409,612 C409,648.1 409,684.2 409,720.3 C409,737.9 408.7,755.5 409,773 C409,773.3 409,773.5 409,773.8 C409,794.7 427.4,814.8 449,813.8 C470.7,812.9 489,796.3 489,773.8 L489,773.8 Z" id="Path"></path>
                <path d="M658.3,773.8 C658.3,759.4 658.3,744.9 658.3,730.5 C658.3,696 658.3,661.5 658.3,627 C658.3,585.1 658.3,543.2 658.3,501.3 C658.3,465.2 658.3,429.1 658.3,393 C658.3,375.4 658.6,357.8 658.3,340.3 C658.3,340 658.3,339.8 658.3,339.5 C658.3,318.6 639.9,298.5 618.3,299.5 C596.6,300.5 578.3,317.1 578.3,339.5 C578.3,353.9 578.3,368.4 578.3,382.8 C578.3,417.3 578.3,451.8 578.3,486.3 C578.3,528.2 578.3,570.1 578.3,612 C578.3,648.1 578.3,684.2 578.3,720.3 C578.3,737.9 578,755.5 578.3,773 C578.3,773.3 578.3,773.5 578.3,773.8 C578.3,794.7 596.7,814.8 618.3,813.8 C640,812.9 658.3,796.3 658.3,773.8 L658.3,773.8 Z" id="Path"></path>
            </g>
        </g>
    </g>
</svg>