<?xml version="1.0" encoding="UTF-8"?>
<svg width="1000px" height="1119px" viewBox="0 0 1000 1119" version="1.1" xmlns="http://www.w3.org/2000/svg" xmlns:xlink="http://www.w3.org/1999/xlink">
    <!-- Generator: Sketch 51.2 (57519) - http://www.bohemiancoding.com/sketch -->
    <title>Shape</title>
    <desc>Created with Sketch.</desc>
    <defs></defs>
    <g id="Page-1" stroke="none" stroke-width="1" fill="none" fill-rule="evenodd">
        <path d="M500,0 C341.906061,0 212.121212,129.449628 212.121212,287.134556 C212.121212,444.819031 341.906061,574.268205 500,574.268205 C658.093939,574.268205 787.878788,444.819031 787.878788,287.134556 C787.878788,129.449628 658.093939,0 500,0 Z M500,151.123451 C576.209091,151.123451 636.363636,211.122785 636.363636,287.134556 C636.363636,363.146176 576.209091,423.145662 500,423.145662 C423.790909,423.145662 363.636364,363.146176 363.636364,287.134556 C363.636364,211.122785 423.790909,151.123451 500,151.123451 Z M500,604.492895 C225.554545,604.492895 0,820.897143 0,1089.97849 L0,1118.31414 L151.515152,1118.31414 L151.515152,1089.97849 C151.515152,904.566641 304.384848,755.617857 500,755.617857 C695.615152,755.617857 848.484848,904.566641 848.484848,1089.97849 L848.484848,1118.31414 L1000,1118.31414 L1000,1089.97849 C1000,820.897143 774.445455,604.492895 500,604.492895 Z" id="Shape" fill="#000000" fill-rule="nonzero"></path>
    </g>
</svg>