<svg xmlns="http://www.w3.org/2000/svg" width="26.761" height="24.839" viewBox="0 0 26.761 24.839">
    <defs>
        <style>
            .cls-1{fill:#e2761b;stroke:#e2761b}.cls-1,.cls-10,.cls-2,.cls-3,.cls-4,.cls-5,.cls-6,.cls-7,.cls-8,.cls-9{stroke-linecap:round;stroke-linejoin:round;stroke-width:.406px}.cls-2{fill:#e4761b;stroke:#e4761b}.cls-3{fill:#d7c1b3;stroke:#d7c1b3}.cls-4{fill:#233447;stroke:#233447}.cls-5{fill:#cd6116;stroke:#cd6116}.cls-6{fill:#e4751f;stroke:#e4751f}.cls-7{fill:#f6851b;stroke:#f6851b}.cls-8{fill:#c0ad9e;stroke:#c0ad9e}.cls-9{fill:#161616;stroke:#161616}.cls-10{fill:#763d16;stroke:#763d16}
        </style>
    </defs>
    <g id="metamask-fox" transform="translate(.203 .203)">
        <path id="Path_1" d="M81.215 14.422L70.931 22.06l1.9-4.506z" class="cls-1" data-name="Path 1" transform="translate(-56.173 -14.422)"/>
        <g id="Group_1" data-name="Group 1" transform="translate(.217)">
            <path id="Path_2" d="M18.038 14.422l10.2 7.71-1.808-4.579z" class="cls-2" data-name="Path 2" transform="translate(-16.952 -14.422)"/>
            <path id="Path_3" d="M88.783 84.012l-2.739 4.2 5.86 1.612 1.685-5.715z" class="cls-2" data-name="Path 3" transform="translate(-67.657 -66.308)"/>
            <path id="Path_4" d="M13.772 84.106l1.674 5.715 5.86-1.612-2.739-4.2z" class="cls-2" data-name="Path 4" transform="translate(-13.772 -66.308)"/>
            <path id="Path_5" d="M37.3 45.815l-1.633 2.47 5.819.258-.207-6.253z" class="cls-2" data-name="Path 5" transform="translate(-30.098 -35.201)"/>
            <path id="Path_6" d="M75.1 45.6L71.069 42l-.134 6.325 5.808-.258z" class="cls-2" data-name="Path 6" transform="translate(-56.39 -34.989)"/>
            <path id="Path_7" d="M43.388 88.6l3.493-1.7-3.018-2.356z" class="cls-2" data-name="Path 7" transform="translate(-35.853 -66.702)"/>
            <path id="Path_8" d="M72.272 86.9l3.5 1.705-.486-4.062z" class="cls-2" data-name="Path 8" transform="translate(-57.389 -66.702)"/>
        </g>
        <g id="Group_2" data-name="Group 2" transform="translate(7.751 20.195)">
            <path id="Path_9" d="M75.776 95.508l-3.5-1.705.279 2.284-.031.961z" class="cls-3" data-name="Path 9" transform="translate(-64.924 -93.803)"/>
            <path id="Path_10" d="M43.388 95.508l3.256 1.54-.021-.961.258-2.284z" class="cls-3" data-name="Path 10" transform="translate(-43.388 -93.803)"/>
        </g>
        <path id="Path_11" d="M47.846 73.339l-2.915-.858 2.057-.941z" class="cls-4" data-name="Path 11" transform="translate(-36.787 -57.009)"/>
        <path id="Path_12" d="M73 73.339l.858-1.8 2.067.941z" class="cls-4" data-name="Path 12" transform="translate(-57.717 -57.009)"/>
        <g id="Group_3" data-name="Group 3" transform="translate(5.013 13.084)">
            <path id="Path_13" d="M35.361 88.209l.5-4.2-3.235.093z" class="cls-5" data-name="Path 13" transform="translate(-32.622 -79.393)"/>
            <path id="Path_14" d="M84.094 84.012l.5 4.2 2.739-4.1z" class="cls-5" data-name="Path 14" transform="translate(-70.999 -79.393)"/>
            <path id="Path_15" d="M76.74 65.853l-5.808.258.537 2.987.858-1.8 2.067.941z" class="cls-5" data-name="Path 15" transform="translate(-61.185 -65.853)"/>
            <path id="Path_16" d="M38.025 68.241l2.067-.941.847 1.8.548-2.987-5.819-.258z" class="cls-5" data-name="Path 16" transform="translate(-34.894 -65.853)"/>
        </g>
        <g id="Group_4" data-name="Group 4" transform="translate(5.788 13.084)">
            <path id="Path_17" d="M35.669 65.853l2.439 4.754-.083-2.367z" class="cls-6" data-name="Path 17" transform="translate(-35.669 -65.853)"/>
            <path id="Path_18" d="M84.238 68.241l-.1 2.367 2.449-4.754z" class="cls-6" data-name="Path 18" transform="translate(-71.804 -65.853)"/>
            <path id="Path_19" d="M56.935 66.869l-.548 2.987.682 3.524.155-4.641z" class="cls-6" data-name="Path 19" transform="translate(-51.117 -66.61)"/>
            <path id="Path_20" d="M70.113 66.869l-.279 1.86.124 4.651.692-3.524z" class="cls-6" data-name="Path 20" transform="translate(-61.142 -66.61)"/>
        </g>
        <path id="Path_21" d="M71.014 76.1l-.692 3.524.5.341 3.014-2.365.1-2.367z" class="cls-7" data-name="Path 21" transform="translate(-55.718 -59.766)"/>
        <path id="Path_22" d="M44.931 75.238l.083 2.367 3.018 2.356.5-.341-.686-3.52z" class="cls-7" data-name="Path 22" transform="translate(-36.787 -59.766)"/>
        <path id="Path_23" d="M50.984 102.046l.031-.961-.258-.227h-3.9l-.238.227.021.961-3.256-1.54 1.137.93 2.3 1.6h3.958l2.315-1.6 1.137-.93z" class="cls-8" data-name="Path 23" transform="translate(-35.636 -78.606)"/>
        <path id="Path_24" d="M60.217 92.8l-.5-.341h-2.859l-.5.341-.258 2.288.238-.227h3.9l.258.227z" class="cls-9" data-name="Path 24" transform="translate(-45.117 -72.608)"/>
        <g id="Group_5" data-name="Group 5">
            <path id="Path_25" d="M82.648 22.556l.879-4.217-1.313-3.917-9.942 7.378 3.828 3.236 5.4 1.581 1.2-1.4-.517-.372.827-.754-.641-.5.827-.63z" class="cls-10" data-name="Path 25" transform="translate(-57.172 -14.422)"/>
            <path id="Path_26" d="M12.919 18.339l.878 4.217-.558.413.827.63-.63.5.827.754-.517.372 1.189 1.4 5.405-1.581 3.824-3.244-9.943-7.379z" class="cls-10" data-name="Path 26" transform="translate(-12.919 -14.422)"/>
        </g>
        <path id="Path_27" d="M90.346 57.725l-5.405-1.581 1.643 2.47-2.449 4.754 3.225-.041h4.806z" class="cls-7" data-name="Path 27" transform="translate(-66.017 -45.529)"/>
        <path id="Path_28" d="M20.976 56.144l-5.406 1.581-1.8 5.6h4.8l3.214.041-2.439-4.754z" class="cls-7" data-name="Path 28" transform="translate(-13.555 -45.529)"/>
        <path id="Path_29" d="M56.089 36.942l.341-5.963L58 26.731h-6.975l1.55 4.248.362 5.963.124 1.881.01 4.63h2.863l.021-4.63z" class="cls-7" data-name="Path 29" transform="translate(-41.331 -23.6)"/>
    </g>
</svg>
