<svg xmlns="http://www.w3.org/2000/svg" width="32" height="19.613" viewBox="0 0 32 19.613">
    <defs>
        <style>
            .cls-1{fill:#3b99fc}
        </style>
    </defs>
    <path id="WalletConnect" d="M6.589 4.172a13.566 13.566 0 0 1 18.9 0l.628.615a.645.645 0 0 1 0 .925l-2.148 2.1a.339.339 0 0 1-.472 0l-.867-.842a9.464 9.464 0 0 0-13.184 0l-.926.906a.339.339 0 0 1-.472 0L5.9 5.772a.645.645 0 0 1 0-.925zm23.341 4.35l1.912 1.872a.645.645 0 0 1 0 .925l-8.622 8.442a.678.678 0 0 1-.945 0l-6.119-5.991a.17.17 0 0 0-.236 0L9.8 19.761a.678.678 0 0 1-.945 0L.233 11.32a.645.645 0 0 1 0-.925l1.913-1.873a.678.678 0 0 1 .945 0l6.119 5.992a.17.17 0 0 0 .236 0l6.119-5.991a.678.678 0 0 1 .945 0l6.119 5.991a.17.17 0 0 0 .236 0l6.119-5.991a.678.678 0 0 1 .946-.001z" class="cls-1" transform="translate(-.038 -.34)"/>
</svg>
