<svg xmlns="http://www.w3.org/2000/svg" width="25" height="25" viewBox="0 0 25 25">
    <defs>
        <style>
            .cls-1{fill:#ff7848}
        </style>
    </defs>
    <path id="error" d="M21.343 3.657a12.506 12.506 0 1 0 0 17.686 12.52 12.52 0 0 0 0-17.686zm-3.911 13.775a.962.962 0 0 1-1.36 0L12.5 13.86 8.759 17.6a.962.962 0 0 1-1.36-1.36l3.741-3.74-3.572-3.571a.962.962 0 0 1 1.36-1.36L12.5 11.14l3.4-3.4a.962.962 0 0 1 1.36 1.36l-3.4 3.4 3.571 3.571a.962.962 0 0 1 .001 1.361z" class="cls-1"/>
</svg>
