<svg xmlns="http://www.w3.org/2000/svg" width="25" height="21.875" viewBox="0 0 25 21.875">
    <defs>
        <style>
            .cls-1{fill:#f5e148}
        </style>
    </defs>
    <path id="warning" d="M24.788 51.524L13.85 32.774a1.563 1.563 0 0 0-2.7 0L.213 51.524a1.563 1.563 0 0 0 1.35 2.35h21.875a1.562 1.562 0 0 0 1.35-2.35zM12.5 50.749a1.563 1.563 0 1 1 1.563-1.563 1.563 1.563 0 0 1-1.563 1.563zm1.563-6.25a1.563 1.563 0 0 1-3.125 0v-4.687a1.563 1.563 0 0 1 3.125 0z" class="cls-1" transform="translate(0 -31.999)"/>
</svg>
